<svg xmlns="http://www.w3.org/2000/svg" width="32" height="32"><g id="Group_60" data-name="Group 60" transform="translate(-975 -3942)"><rect id="Rectangle_144" data-name="Rectangle 144" width="32" height="32" rx="6" transform="translate(975 3942)" fill="#f1f1f4"/><g id="instagram" transform="translate(982.551 3950)" fill="#646f87"><path id="Path_83" data-name="Path 83" d="M16.408 4.7a5.846 5.846 0 00-.372-1.941A4.1 4.1 0 0013.694.422 5.864 5.864 0 0011.753.05C10.9.009 10.624 0 8.452 0s-2.445.009-3.3.047a5.85 5.85 0 00-1.94.372 3.9 3.9 0 00-1.419.925A3.939 3.939 0 00.871 2.76 5.861 5.861 0 00.5 4.7C.458 5.557.449 5.829.449 8s.009 2.446.051 3.3a5.845 5.845 0 00.368 1.94 4.1 4.1 0 002.341 2.341 5.864 5.864 0 001.941.372C6 15.991 6.276 16 8.449 16s2.445-.009 3.3-.047a5.847 5.847 0 001.941-.372 4.093 4.093 0 002.34-2.341 5.865 5.865 0 00.37-1.94c.037-.853.047-1.125.047-3.3s0-2.444-.041-3.3zm-1.441 6.533a4.385 4.385 0 01-.275 1.485 2.654 2.654 0 01-1.519 1.519 4.4 4.4 0 01-1.485.275c-.844.038-1.1.047-3.232.047s-2.392-.009-3.233-.047a4.385 4.385 0 01-1.485-.275 2.463 2.463 0 01-.919-.6 2.488 2.488 0 01-.6-.919 4.4 4.4 0 01-.275-1.485c-.038-.844-.047-1.1-.047-3.232s.009-2.391.047-3.232a4.383 4.383 0 01.275-1.485 2.432 2.432 0 01.6-.919 2.484 2.484 0 01.919-.6A4.406 4.406 0 015.225 1.5c.844-.037 1.1-.047 3.232-.047s2.392.009 3.233.047a4.387 4.387 0 011.485.275 2.461 2.461 0 01.919.6 2.487 2.487 0 01.6.919 4.4 4.4 0 01.275 1.485c.037.844.047 1.1.047 3.232s-.009 2.385-.047 3.229zm0 0"/><path id="Path_84" data-name="Path 84" d="M129.18 124.5a4.23 4.23 0 104.231 4.23 4.231 4.231 0 00-4.231-4.23zm0 6.973a2.744 2.744 0 112.745-2.744 2.745 2.745 0 01-2.745 2.744zm0 0" transform="translate(-120.728 -120.728)"/><path id="Path_85" data-name="Path 85" d="M364.31 89.532a.93.93 0 11-.93-.93.93.93 0 01.93.93zm0 0" transform="translate(-350.637 -85.821)"/></g></g></svg>