<svg xmlns="http://www.w3.org/2000/svg" width="48" height="48"><g id="graphs" transform="translate(0 -.053)"><path id="Path_62" data-name="Path 62" d="M87.974 197.821h-9.337a1.412 1.412 0 00-1.412 1.412v18.19a1.412 1.412 0 001.412 1.412h9.337a1.412 1.412 0 001.412-1.412v-18.19a1.412 1.412 0 00-1.412-1.412zm-7.926 8.887h6.514v3.24h-6.514zm6.514-6.063v3.24h-6.514v-3.24zm-6.514 15.366v-3.24h6.514v3.24z" transform="translate(-69.993 -179.271)" fill="#646f87"/><path id="Path_63" data-name="Path 63" d="M43.333.053H4.667A4.673 4.673 0 000 4.721v38.664a4.673 4.673 0 004.667 4.668h38.666A4.673 4.673 0 0048 43.385V4.721A4.673 4.673 0 0043.333.053zM4.667 2.867h38.666a1.857 1.857 0 011.854 1.855v6.421H2.813V4.721a1.857 1.857 0 011.854-1.854zm38.666 42.372H4.667a1.856 1.856 0 01-1.854-1.855V13.955h42.374v29.43a1.857 1.857 0 01-1.854 1.854z" fill="#646f87"/><path id="Path_64" data-name="Path 64" d="M61.638 62.882a1.421 1.421 0 10-1.421-1.42 1.421 1.421 0 001.421 1.42z" transform="translate(-54.55 -54.349)" fill="#e60f26"/><path id="Path_65" data-name="Path 65" d="M123.045 62.883a1.421 1.421 0 10-1.421-1.42 1.421 1.421 0 001.421 1.42z" transform="translate(-110.223 -54.35)" fill="#e60f26"/><path id="Path_66" data-name="Path 66" d="M187.236 62.882a1.421 1.421 0 10-1.421-1.42 1.421 1.421 0 001.421 1.42z" transform="translate(-168.396 -54.349)" fill="#e60f26"/><path id="Path_67" data-name="Path 67" d="M251.268 168.961a3.8 3.8 0 00-3.777 1.547l-3.391-.608a3.828 3.828 0 00-3.064-2.972 3.79 3.79 0 00-4.404 3.072 3.813 3.813 0 006.986 2.679l3.232.579a3.844 3.844 0 00.7 1.687l-2.18 3.043a3.37 3.37 0 00-.18-.037 3.8 3.8 0 10-.2 7.515l2.166 3.136a3.828 3.828 0 002.622 5.678 3.8 3.8 0 10-.38-7.4l-1.919-2.779a3.786 3.786 0 00.21-4.507l2.261-3.156a3.8 3.8 0 101.312-7.481zm-10.314 2.509a.971.971 0 01-.734.16.974.974 0 11.734-.16zm2.611 10.045a.953.953 0 01.4-.621.985.985 0 011.146 1.6c-.02.014-.04.026-.06.038a1.428 1.428 0 00-.15.073.973.973 0 01-.525.05.992.992 0 01-.81-1.14zm6.864 8.052a1 1 0 01.984 1.156.954.954 0 01-.4.621.971.971 0 01-.734.16.992.992 0 01-.807-1.14.953.953 0 01.4-.621.969.969 0 01.557-.176zm1.148-16.686a.953.953 0 01-.4.621.971.971 0 01-.734.16 1 1 0 01-.195-.055.989.989 0 01-.128-.063l-.011-.006a.99.99 0 01-.473-1.016.953.953 0 01.4-.621.973.973 0 01.734-.16.992.992 0 01.807 1.14z" transform="translate(-214.441 -151.285)" fill="#e60f26"/></g></svg>