<svg xmlns="http://www.w3.org/2000/svg" width="48" height="46"><g id="folder_1_" data-name="folder (1)" transform="translate(0 -11)"><path id="Path_74" data-name="Path 74" d="M91.669 411h-9.432a1.415 1.415 0 000 2.83h9.432a1.415 1.415 0 000-2.83z" transform="translate(-73.261 -362.489)" fill="#e60f26"/><path id="Path_75" data-name="Path 75" d="M84.746 353.83a1.415 1.415 0 100-2.83h-9.432a1.415 1.415 0 100 2.83z" transform="translate(-66.929 -308.092)" fill="#e60f26"/><path id="Path_76" data-name="Path 76" d="M312.515 351h-10.1a1.415 1.415 0 00-1.415 1.415v5.659a1.415 1.415 0 001.415 1.415h9.449a1.415 1.415 0 001.405-1.253l.653-5.659a1.415 1.415 0 00-1.407-1.577zm-1.914 5.659h-6.773v-2.83h7.1z" transform="translate(-272.9 -308.148)" fill="#e60f26"/><path id="Path_77" data-name="Path 77" d="M44.156 29.793v-8.936a4.226 4.226 0 00-4.219-4.224H22.994l-1.646-3.3A4.2 4.2 0 0017.574 11H8.062a4.226 4.226 0 00-4.219 4.224v14.569a4.223 4.223 0 00-3.815 4.691L2.192 53.26A4.221 4.221 0 006.383 57h35.234a4.221 4.221 0 004.191-3.74l2.163-18.776a4.222 4.222 0 00-3.815-4.691zm-37.5-14.569a1.409 1.409 0 011.406-1.408h9.512a1.4 1.4 0 011.258.778l2.035 4.076a1.406 1.406 0 001.258.778h17.812a1.409 1.409 0 011.406 1.408v8.918h-2.812v-6.1a1.407 1.407 0 00-1.406-1.408h-26.25a1.407 1.407 0 00-1.406 1.408v6.1H6.656zm29.062 9.857v4.694H12.281v-4.693zm9.459 9.08l-2.163 18.776a1.407 1.407 0 01-1.4 1.247H6.383a1.407 1.407 0 01-1.4-1.247L2.822 34.161a1.407 1.407 0 011.4-1.57h39.559a1.407 1.407 0 011.397 1.57z" fill="#646f87"/></g></svg>