<svg xmlns="http://www.w3.org/2000/svg" width="48" height="42"><g id="live-chat" transform="translate(0 -31.007)"><path id="Path_49" data-name="Path 49" d="M43.781 42.206h-2.9a18.312 18.312 0 00-33.755 0H4.219A4.214 4.214 0 000 46.406v5.6a4.214 4.214 0 004.219 4.2H9.98l-.6-1.835a15.535 15.535 0 1114.642 10.236 4.2 4.2 0 104.2 4.2v-1.891a18.3 18.3 0 009.7-5.927 18.09 18.09 0 002.952-4.782h2.906a4.214 4.214 0 004.22-4.2v-5.6a4.214 4.214 0 00-4.219-4.2zM6.194 53.407H4.219a1.4 1.4 0 01-1.406-1.4v-5.6a1.4 1.4 0 011.406-1.4H6.21q-.075.315-.139.632a18.4 18.4 0 00.123 7.768zm19.213 15.4a1.406 1.406 0 01-2.812 0 1.419 1.419 0 011.432-1.4q.694 0 1.381-.054zm19.781-16.8a1.4 1.4 0 01-1.406 1.4h-1.993a18.256 18.256 0 00.252-7.188q-.1-.61-.242-1.213h1.983a1.4 1.4 0 011.406 1.4z" fill="#646f87"/><path id="Path_50" data-name="Path 50" d="M181 210.993h2.827v2.827H181z" transform="translate(-164.037 -163.198)" fill="#646f87"/><path id="Path_51" data-name="Path 51" d="M241 210.993h2.827v2.827H241z" transform="translate(-218.414 -163.198)" fill="#646f87"/><path id="Path_52" data-name="Path 52" d="M301 210.993h2.827v2.827H301z" transform="translate(-272.791 -163.198)" fill="#646f87"/><path id="Path_53" data-name="Path 53" d="M121 113.612v2.827h12.6a12.67 12.67 0 10-9.906-4.864 2.787 2.787 0 01-2.694 2.037zm12.6-19.792a9.9 9.9 0 010 19.792h-7.75a5.671 5.671 0 00.725-2.306l.055-.605-.4-.457a9.917 9.917 0 017.37-16.424z" transform="translate(-109.596 -54.332)" fill="#e60f26"/></g></svg>