<svg xmlns="http://www.w3.org/2000/svg" width="42" height="48"><g id="cyber-security" transform="translate(-33.307)"><path id="Path_68" data-name="Path 68" d="M73.892 5.677C68.587 5.677 58.933 4.6 55.91.644a1.373 1.373 0 00-2.253-.108c-3.56 3.957-13.236 5.14-18.936 5.14a1.413 1.413 0 00-1.415 1.412v22.585c0 10.172 11.778 16.386 20.7 18.318 1.152.249 21.3-4.825 21.3-18.318V7.088a1.413 1.413 0 00-1.414-1.411zm-1.415 24c0 10.6-15.781 14.9-18.171 15.488-2.39-.589-18.171-4.887-18.171-15.488V8.484c10.923-.251 16.37-3.379 18.536-5.074 4.363 3.837 11.995 4.943 17.806 5.074v21.189z" fill="#646f87"/><path id="Path_69" data-name="Path 69" d="M153.816 127.788v4.283h-1.41a1.409 1.409 0 00-1.406 1.412v11.295a1.409 1.409 0 001.406 1.412h16.871a1.409 1.409 0 001.406-1.412v-11.295a1.409 1.409 0 00-1.406-1.412h-12.649v-4.283a4.213 4.213 0 018.427 0 1.406 1.406 0 102.812 0 7.025 7.025 0 00-14.05 0zm14.055 15.577h-14.059v-8.471h14.059z" transform="translate(-106.534 -109.456)" fill="#e60f26"/><ellipse id="Ellipse_1" data-name="Ellipse 1" cx="1.406" cy="1.411" rx="1.406" ry="1.411" transform="translate(52.901 28.262)" fill="#646f87"/></g></svg>