<svg xmlns="http://www.w3.org/2000/svg" width="42.513" height="48.496"><g id="service" transform="translate(-30.754 .25)"><path id="Path_59" data-name="Path 59" d="M39.901 17.811h.758q.163.446.36.877l-.535.539a1.413 1.413 0 000 1.988l3.95 3.977a1.39 1.39 0 001.975 0l.535-.539q.428.2.871.362v.763a1.4 1.4 0 001.4 1.406h5.586a1.4 1.4 0 001.4-1.406v-.763q.444-.164.871-.362l.535.539a1.39 1.39 0 001.975 0l3.95-3.977a1.413 1.413 0 000-1.988l-.535-.539q.2-.431.36-.877h.758a1.4 1.4 0 001.4-1.406v-5.624a1.4 1.4 0 00-1.4-1.406h-.758q-.163-.446-.36-.877l.535-.539a1.413 1.413 0 000-1.989l-3.95-3.977a1.39 1.39 0 00-1.975 0l-.535.539q-.428-.2-.871-.362v-.764A1.4 1.4 0 0054.801 0h-5.587a1.4 1.4 0 00-1.4 1.406v.763q-.443.164-.871.362l-.535-.539a1.39 1.39 0 00-1.975 0l-3.95 3.977a1.413 1.413 0 000 1.988l.535.539q-.2.43-.36.877h-.757a1.4 1.4 0 00-1.4 1.406V16.4a1.4 1.4 0 001.4 1.406zm1.4-5.625h.381a1.4 1.4 0 001.348-1.04 9.345 9.345 0 01.91-2.217 1.413 1.413 0 00-.223-1.7l-.268-.27 1.975-1.989.268.27a1.39 1.39 0 001.684.224 9.214 9.214 0 012.2-.916A1.4 1.4 0 0050.611 3.2v-.388h2.79V3.2a1.4 1.4 0 001.033 1.357 9.216 9.216 0 012.2.916 1.39 1.39 0 001.684-.224l.268-.27 1.975 1.989-.268.27a1.413 1.413 0 00-.223 1.7 9.352 9.352 0 01.91 2.217 1.4 1.4 0 001.348 1.04h.381V15h-.381a1.4 1.4 0 00-1.348 1.04 9.353 9.353 0 01-.91 2.218 1.413 1.413 0 00.223 1.7l.268.27-1.975 1.989-.268-.27a1.39 1.39 0 00-1.684-.224 9.214 9.214 0 01-2.2.916 1.4 1.4 0 00-1.033 1.357v.384h-2.793v-.39a1.4 1.4 0 00-1.033-1.357 9.219 9.219 0 01-2.2-.916 1.389 1.389 0 00-1.684.224l-.268.27-1.975-1.989.268-.27a1.413 1.413 0 00.223-1.7 9.347 9.347 0 01-.91-2.218A1.4 1.4 0 0041.681 15h-.38v-2.813z" fill="#e60f26" stroke="#eff0f3" stroke-width=".5"/><path id="Path_60" data-name="Path 60" d="M197.1 92.187a6.093 6.093 0 10-6.093-6.093 6.1 6.1 0 006.093 6.093zm0-9.374a3.281 3.281 0 11-3.281 3.281 3.285 3.285 0 013.281-3.282z" transform="translate(-145.092 -72.501)" fill="#646f87"/><path id="Path_61" data-name="Path 61" d="M72.445 32.297a4.19 4.19 0 00-5.737-1.544L58.8 35.337a4.191 4.191 0 01-1.411.508 4.222 4.222 0 00-3.98-5.567H44.82a8.79 8.79 0 00-6.27 2.608l-7.133 7.164a1.409 1.409 0 00.329 2.234l10.317 5.546a1.4 1.4 0 001.651-.246l2.548-2.559a2.313 2.313 0 011.65-.686H58.2a6.986 6.986 0 003.5-.942l9.208-5.34a4.233 4.233 0 001.537-5.76zm-2.937 3.327l-9.208 5.34a4.191 4.191 0 01-2.1.565H47.913a5.089 5.089 0 00-3.63 1.51l-1.814 1.821-7.738-4.16 5.8-5.824a6.014 6.014 0 014.29-1.785h8.588a1.406 1.406 0 010 2.812h-4.668a1.406 1.406 0 000 2.812H56.7a6.986 6.986 0 003.5-.942l7.909-4.586a1.4 1.4 0 011.912.515 1.411 1.411 0 01-.513 1.92z" fill="#646f87" stroke="#eff0f3" stroke-width=".5"/></g></svg>