<svg xmlns="http://www.w3.org/2000/svg" width="48.5" height="44.5"><g id="browser-code" transform="translate(.25 .25)" stroke="#eff0f3" stroke-width=".5"><path id="coding" d="M26.224 16.5a1.879 1.879 0 011.829 2.382L23.8 33.779a1.9 1.9 0 01-3.659-1.017l4.258-14.9a1.9 1.9 0 011.83-1.366zm-14.468 8.93l4.637-3.866a1.858 1.858 0 00.232-2.627 1.883 1.883 0 00-2.641-.231l-4.643 3.872-.009.008a4.353 4.353 0 000 6.66l.009.008 4.643 3.87a1.869 1.869 0 102.409-2.857L11.756 26.4a.638.638 0 010-.971zm24.387.978l-4.549 3.871a1.857 1.857 0 00-.205 2.629 1.882 1.882 0 002.644.2l4.544-3.866a4.352 4.352 0 00.005-6.655l-4.549-3.871a1.882 1.882 0 00-2.644.2 1.857 1.857 0 00.205 2.629l4.555 3.875a.638.638 0 01-.005.98z" transform="translate(.046)" fill="#e60f26"/><path id="coding-2" data-name="coding" d="M48 5.594v21.627a1.875 1.875 0 01-3.75 0V11.28H3.751v25.263A3.744 3.744 0 007.5 40.271h33a3.744 3.744 0 003.75-3.729 1.875 1.875 0 013.75 0A7.487 7.487 0 0140.5 44h-33A7.487 7.487 0 010 36.543V5.594A5.615 5.615 0 015.626 0h36.75A5.615 5.615 0 0148 5.594zm-15.094 0a1.875 1.875 0 101.875-1.864 1.872 1.872 0 00-1.874 1.864zm9.375-1.864a1.864 1.864 0 101.875 1.864 1.872 1.872 0 00-1.874-1.865zM3.751 7.551h25.763a5.552 5.552 0 01-.034-3.822H5.626a1.872 1.872 0 00-1.875 1.865zm0 0" transform="translate(-.001)" fill="#646f87"/></g></svg>