<svg id="file_3_" data-name="file (3)" xmlns="http://www.w3.org/2000/svg" width="48" height="48"><g id="Group_47" data-name="Group 47"><g id="Group_46" data-name="Group 46"><path id="Rectangle_80" data-name="Rectangle 80" transform="translate(17.014 32.898)" fill="#e60f26" d="M0 0h11v3H0z"/><path id="Rectangle_81" data-name="Rectangle 81" transform="translate(16.932 24.973)" fill="#e60f26" d="M0 0h22v3H0z"/><path id="Path_73" data-name="Path 73" d="M42.375 7.5H40.5V5.625A5.631 5.631 0 0034.875 0H5.625A5.631 5.631 0 000 5.625v29.25A5.631 5.631 0 005.625 40.5H7.5v1.875A5.631 5.631 0 0013.125 48h21.546L48 34.607V13.125A5.631 5.631 0 0042.375 7.5zM7.5 13.125V36.75H5.625a1.877 1.877 0 01-1.875-1.875V5.625A1.877 1.877 0 015.625 3.75h29.25a1.877 1.877 0 011.875 1.875V7.5H13.125A5.631 5.631 0 007.5 13.125zm28.3 28.423v-3.965a1.877 1.877 0 011.875-1.875h3.937zm8.448-9.59h-6.571a5.631 5.631 0 00-5.625 5.625v6.667H13.125a1.877 1.877 0 01-1.875-1.875v-29.25a1.877 1.877 0 011.875-1.875h29.25a1.877 1.877 0 011.875 1.875z" fill="#646f87"/><path id="Rectangle_82" data-name="Rectangle 82" transform="translate(16.932 17.048)" fill="#e60f26" d="M0 0h22v3H0z"/></g></g></svg>