<svg xmlns="http://www.w3.org/2000/svg" width="209" height="34.619"><path d="M9.971 18.93l5.452 8.395a2.721 2.721 0 104.593-2.918l-6.554-10.092a2.747 2.747 0 00-.307-.391l6.545-10.3 16.106 25.341a3.69 3.69 0 01.308 3.512 3.648 3.648 0 01-3.316 2.143h-32.8z" fill="#0f1542" fill-rule="evenodd"/><path d="M39.452 27.443L22.009 0l-1.527 2.4 16.457 25.888a4.7 4.7 0 01.422.8 4.973 4.973 0 01-.015 3.847l.52-.231a3.7 3.7 0 00.471-.253 3.626 3.626 0 001.116-5.006M7.929 12.496a2.969 2.969 0 11-.872 4.1 2.972 2.972 0 01.872-4.1" fill="#e50019" fill-rule="evenodd"/><path d="M57.377 9.621v9.736a4.927 4.927 0 00.933 3.146 4.491 4.491 0 006.078-.013 4.8 4.8 0 00.972-3.133V9.621h2.592v9.995a6.359 6.359 0 01-1.659 4.816 8.44 8.44 0 01-9.849-.013 6.308 6.308 0 01-1.685-4.8V9.621zM71.192 9l10.161 9.761c.086.087.164.169.233.246s.147.16.233.246q.156.156.3.324c.1.112.2.229.3.349.12.121.237.251.349.389s.229.276.35.414V9.621h2.384v16.623l-10.37-9.942a9.5 9.5 0 01-.816-.868q-.377-.453-.739-.945v11.159h-2.385zm17.677.621h2.618v16.027h-2.618zm16.563 2.525a6.961 6.961 0 00-2.566-.479c-.208 0-.419.009-.635.026s-.446.043-.687.077a5 5 0 00-3.357 2.059 6.547 6.547 0 00-1.257 3.56v.6a6.653 6.653 0 001.127 3.315 5.149 5.149 0 002.942 2.123c.138.035.277.064.415.09s.285.057.441.091l.415.052a3.384 3.384 0 00.414.026 6.3 6.3 0 002.683-.6 12.02 12.02 0 002.4-1.476v2.952a7.98 7.98 0 01-1.645.841 9.812 9.812 0 01-1.75.479q-.415.053-.829.091t-.8.039a8.894 8.894 0 01-5.625-1.994 7.627 7.627 0 01-2.877-5.541v-.414a.581.581 0 01-.026-.181v-.207a8.305 8.305 0 011.408-4.7 8.044 8.044 0 016.057-3.639.913.913 0 00.156-.013.776.776 0 01.129-.013 4.191 4.191 0 01.454-.026h.4a8 8 0 012.618.427 11.584 11.584 0 012.462 1.2l-.13 2.615a8.8 8.8 0 00-2.337-1.38zm18.416 12.519a9.054 9.054 0 01-4.731 1.346c-.138 0-.272 0-.4-.013s-.264-.022-.4-.039a9.517 9.517 0 01-1.633-.3 7.9 7.9 0 01-1.555-.608 8.445 8.445 0 01-3.331-3.159 8.254 8.254 0 01-1.205-4.3 6.787 6.787 0 01.039-.725 9.837 9.837 0 01.453-1.981 11.756 11.756 0 01.519-1.2 8.1 8.1 0 013.227-3.262 8.844 8.844 0 014.341-1.139q.389 0 .8.039a7.53 7.53 0 01.8.116 10.053 10.053 0 011.633.453 7.26 7.26 0 011.5.764 8.028 8.028 0 012.786 3.094 8.605 8.605 0 011 4 8 8 0 01-.156 1.58 9.52 9.52 0 01-.44 1.527 7.768 7.768 0 01-3.247 3.807zm-1.124-2.257a6.045 6.045 0 002.277-4.734 5.88 5.88 0 00-1.723-4.221 5.574 5.574 0 00-4.161-1.786h-.544a5.458 5.458 0 00-3.784 2.058 6.19 6.19 0 00-1.5 4.026 2.481 2.481 0 00.013.259c.009.087.022.173.039.259a.7.7 0 00.013.143.693.693 0 01.013.142 1.367 1.367 0 01.039.143.571.571 0 01.013.116 5.935 5.935 0 002.048 3.431 5.709 5.709 0 005.021 1.254 4.859 4.859 0 002.236-1.09zM130.885 9l10.161 9.761c.086.087.164.169.233.246s.146.16.233.246q.156.156.3.324c.1.112.194.229.3.349.121.121.237.251.35.389s.229.276.35.414V9.621h2.385v16.623l-10.368-9.942a9.508 9.508 0 01-.817-.868q-.377-.453-.739-.945v11.159h-2.384z" fill="#0f1542"/><path d="M155.288 21.438a3.334 3.334 0 00.765 1.369 2.454 2.454 0 001.412.724l.1.025a.5.5 0 01.1.026c.1.017.211.035.324.052a2.323 2.323 0 00.35.026h.181a.587.587 0 00.182-.026 2.946 2.946 0 001-.284 1.928 1.928 0 00.765-.646 3.9 3.9 0 00.233-.5 2.073 2.073 0 00.13-.556.456.456 0 00.026-.142v-.146a2.132 2.132 0 00-.013-.245q-.014-.116-.039-.246a2.476 2.476 0 00-.078-.387 1.168 1.168 0 00-.155-.336 2.316 2.316 0 00-.8-.775 8.174 8.174 0 00-1.166-.594q-.416-.207-.83-.375a5.667 5.667 0 01-.725-.348.108.108 0 01-.052-.013.2.2 0 01-.052-.039 11.034 11.034 0 01-2.087-1.447 3.543 3.543 0 01-1.179-2.2c-.011-.064-.016-.108-.025-.169s-.021-.1-.027-.165-.013-.113-.018-.174-.008-.113-.008-.165c0-.1 0-.211.013-.324s.022-.228.039-.349a4.848 4.848 0 01.376-1.217 3.809 3.809 0 01.687-1.036 4.121 4.121 0 011.529-1.061 6.212 6.212 0 011.919-.465h.545c.068 0 .105.006.213.012a5.549 5.549 0 012.456.751 3.682 3.682 0 011.659 1.929l-2 1.062a3.827 3.827 0 00-1.024-1.075 2.387 2.387 0 00-1.386-.4h-.078a2.227 2.227 0 00-1.529.621 2.13 2.13 0 00-.7 1.321v.155a1.4 1.4 0 00.013.181.852.852 0 00.039.182 1.578 1.578 0 00.259.647 2.225 2.225 0 00.518.544 5.335 5.335 0 001.154.787q.635.324 1.283.582l.078.038.077.039q.492.207.972.426a5.954 5.954 0 01.894.5 4.284 4.284 0 011.309 1.4 4.414 4.414 0 01.584 1.7 3.916 3.916 0 01.052.62 4.821 4.821 0 01-.791 2.635 4.275 4.275 0 01-2.242 1.756c-.173.052-.355.1-.544.155a3.381 3.381 0 01-.571.1q-.311.051-.6.078c-.19.017-.372.025-.544.025a5.862 5.862 0 01-3.162-.9 4.422 4.422 0 01-1.944-2.712zm23.833 3.226a9.041 9.041 0 01-4.73 1.346c-.139 0-.272 0-.4-.012s-.264-.022-.4-.039a9.632 9.632 0 01-1.633-.3 7.964 7.964 0 01-1.555-.609 8.443 8.443 0 01-3.331-3.158 8.256 8.256 0 01-1.205-4.3 6.773 6.773 0 01.039-.725 7.01 7.01 0 01.117-.725 6.886 6.886 0 01.336-1.256 11.882 11.882 0 01.519-1.2 8.1 8.1 0 013.227-3.262 8.841 8.841 0 014.342-1.14q.389 0 .8.039a7.853 7.853 0 01.8.117 9.981 9.981 0 011.633.453 7.228 7.228 0 011.5.764 8.021 8.021 0 012.786 3.094 8.6 8.6 0 011 4 8.066 8.066 0 01-.155 1.579 9.637 9.637 0 01-.441 1.528 7.757 7.757 0 01-3.249 3.806zm-1.119-2.257a6.043 6.043 0 002.278-4.734 5.877 5.877 0 00-1.724-4.22 5.571 5.571 0 00-4.16-1.787h-.544a5.465 5.465 0 00-3.79 2.064 6.189 6.189 0 00-1.5 4.026 2.483 2.483 0 00.013.259 2.316 2.316 0 00.039.259.693.693 0 00.013.142.791.791 0 01.013.143 1.29 1.29 0 01.039.142.645.645 0 01.012.117 5.938 5.938 0 002.048 3.43 5.714 5.714 0 005.021 1.255 4.842 4.842 0 002.242-1.096zm8.027-12.786h8.942v2.252h-6.35v3.962h6.35v2.253h-6.35v7.56h-2.592zm18.746 16.027h-2.618V11.873h-4.255V9.621h11.1v2.252h-4.225z" fill="#e50019"/></svg>