<svg xmlns="http://www.w3.org/2000/svg" width="55.979" height="56"><g id="Group_27" data-name="Group 27" transform="translate(-652.111 -862.789)"><path id="Path_30" data-name="Path 30" d="M699.321 862.789h-38.46c-.3 0-.6.014-.889.042a7.7 7.7 0 00-.819.119 8.788 8.788 0 00-7.042 8.589v26.9a8.758 8.758 0 008.75 8.75h9.849a2.188 2.188 0 000-4.375h-9.849a4.377 4.377 0 01-4.375-4.375v-26l23.605 16.528 23.609-16.532v12.552a2.188 2.188 0 004.375 0v-13.448a8.754 8.754 0 00-8.754-8.75zm-19.23 20.833l-22.037-15.429a4.329 4.329 0 012.359-1.008c.147-.014.294-.021.448-.021h38.46a4.375 4.375 0 012.814 1.022z" fill="#646f87"/><g id="Group_26" data-name="Group 26" transform="translate(679.039 889.737)"><g id="Group_25" data-name="Group 25"><g id="Group_24" data-name="Group 24"><path id="Path_31" data-name="Path 31" d="M719.376 911.96a1.922 1.922 0 00-.224-.308l-3.92-4.361-4.851-5.39a1.849 1.849 0 00-3.227 1.232v4.1a17.146 17.146 0 00-12.342 7.126 20.477 20.477 0 00-2.422 4.375 25.7 25.7 0 00-1.813 9.758 1.844 1.844 0 001.554 1.827 1.921 1.921 0 00.287.021 1.856 1.856 0 001.764-1.26c1.953-5.866 6.2-8.946 12.972-9.4v3.934a1.849 1.849 0 003.283 1.169l8.771-10.724a1.831 1.831 0 00.168-2.099zm-8.519 6.468v-.665a1.858 1.858 0 00-1.857-1.854c-.931 0-1.834.042-2.7.119a19.613 19.613 0 00-8.687 2.7 14.422 14.422 0 00-1.765 1.272c.182-.434.371-.861.581-1.267a14.961 14.961 0 013.283-4.375 13.483 13.483 0 019.288-3.525 1.852 1.852 0 001.855-1.848v-1.029l3.787 4.207.7.777-.3.371z" transform="translate(-690.577 -901.285)" fill="#e60f26"/></g></g></g></g></svg>