<svg xmlns="http://www.w3.org/2000/svg" width="46.934" height="56"><g id="Group_39" data-name="Group 39" transform="translate(-403.623 -1111.938)"><g id="Group_36" data-name="Group 36" transform="translate(403.623 1111.938)" fill="#646f87"><path id="Path_42" data-name="Path 42" d="M437.12 1125.1H414.6a2.186 2.186 0 000 4.372h22.52a2.186 2.186 0 100-4.372zm-8.729 8.744H414.6a2.186 2.186 0 000 4.372h13.787a2.186 2.186 0 000-4.372zm-4.7 8.743H414.6a2.186 2.186 0 000 4.372h9.086a2.186 2.186 0 000-4.372zm15.619-30.644h-5.022a2.236 2.236 0 00-.441.042h5.463a8.774 8.774 0 018.387 6.239 8.75 8.75 0 00-8.388-6.286zm-26.874 55.957a8.781 8.781 0 01-8.583-7.037 8.752 8.752 0 008.583 7.079h5.022a2.245 2.245 0 00.441-.042z" transform="translate(-403.692 -1111.938)"/><path id="Path_43" data-name="Path 43" d="M447.942 1119.846a9.346 9.346 0 00-.315-1.609 8.774 8.774 0 00-8.387-6.237h-26.874a8.747 8.747 0 00-8.743 8.743v38.429c0 .3.014.6.042.888a7.672 7.672 0 00.119.818 8.781 8.781 0 008.583 7.037h11.807a2.186 2.186 0 100-4.372h-11.808a4.382 4.382 0 01-4.351-3.924 4.687 4.687 0 01-.021-.448v-38.429a4.373 4.373 0 014.372-4.372h26.874a4.382 4.382 0 014.351 3.924 3.947 3.947 0 01.021.406v22.39a2.186 2.186 0 004.372 0v-22.39c0-.287-.014-.574-.042-.854z" transform="translate(-403.623 -1111.956)"/></g><g id="Group_38" data-name="Group 38" transform="translate(431.68 1150.775)"><g id="Group_37" data-name="Group 37"><path id="Path_44" data-name="Path 44" d="M461.946 1168.154a2.322 2.322 0 00-3.283-.027l-7.824 7.7-3.169-3.067a2.321 2.321 0 00-3.228 3.336l4.8 4.642a2.321 2.321 0 003.241-.013l9.439-9.283a2.322 2.322 0 00.024-3.288z" transform="translate(-443.734 -1167.461)" fill="#e60f26"/></g></g></g></svg>