<svg xmlns="http://www.w3.org/2000/svg" width="44.361" height="56"><g id="Group_32" data-name="Group 32" transform="translate(-691.861 -1118.816)"><path id="Path_34" data-name="Path 34" d="M725.358 1131.973h-22.516a2.186 2.186 0 000 4.372h22.516a2.186 2.186 0 100-4.372zm-8.729 8.743h-13.787a2.186 2.186 0 000 4.372h13.787a2.186 2.186 0 000-4.372zm-4.7 8.743h-9.086a2.186 2.186 0 000 4.372h9.086a2.186 2.186 0 000-4.372zm15.619-30.644h-5.022a2.254 2.254 0 00-.441.042h5.463a8.774 8.774 0 018.387 6.239 8.75 8.75 0 00-8.388-6.28zm-26.874 55.958a8.781 8.781 0 01-8.583-7.037 8.752 8.752 0 008.583 7.079h5.026a2.245 2.245 0 00.441-.042z" transform="translate(-.069)" fill="#646f87"/><path id="Path_35" data-name="Path 35" d="M736.18 1126.724a9.354 9.354 0 00-.315-1.609 8.774 8.774 0 00-8.387-6.239H700.6a8.747 8.747 0 00-8.743 8.743v38.429c0 .3.014.6.042.888a7.678 7.678 0 00.119.818 8.781 8.781 0 008.583 7.037h11.807a2.186 2.186 0 100-4.372H700.6a4.382 4.382 0 01-4.351-3.924 4.687 4.687 0 01-.021-.448v-38.429a4.373 4.373 0 014.372-4.372h26.874a4.382 4.382 0 014.351 3.924 3.944 3.944 0 01.021.406v22.39a2.186 2.186 0 004.372 0v-22.39a7.496 7.496 0 00-.038-.852z" transform="translate(0 -.018)" fill="#646f87"/><path id="Path_36" data-name="Path 36" d="M742.762 1173.213a9.381 9.381 0 00-5.106-1.5 9.478 9.478 0 00-9.485 9.478 9.362 9.362 0 001.5 5.106 9.478 9.478 0 1013.094-13.087zm-5.106 13.087a5.106 5.106 0 115.106-5.106 5.109 5.109 0 01-5.106 5.106z" transform="translate(-10.912 -15.898)" fill="#e60f26"/></g></svg>