<svg xmlns="http://www.w3.org/2000/svg" width="51.673" height="55.83"><g id="Group_31" data-name="Group 31" transform="translate(-107.931 -1117.593)"><path id="Path_32" data-name="Path 32" d="M123.852 1171.242a2.181 2.181 0 01-2.181 2.181h-5.016a8.733 8.733 0 01-8.723-8.723v-38.383a8.733 8.733 0 018.723-8.723h26.813a8.733 8.733 0 018.723 8.723v12.976a2.181 2.181 0 11-4.362 0v-12.976a4.367 4.367 0 00-4.362-4.362h-26.813a4.367 4.367 0 00-4.362 4.362v38.383a4.367 4.367 0 004.362 4.362h5.016a2.181 2.181 0 012.182 2.18zm19.615-38.383a2.181 2.181 0 00-2.181-2.181h-22.463a2.181 2.181 0 100 4.362h22.463a2.181 2.181 0 002.181-2.181zm-8.711 8.723a2.181 2.181 0 00-2.181-2.181h-13.752a2.181 2.181 0 100 4.362h13.752a2.181 2.181 0 002.181-2.181zm-15.933 6.542a2.181 2.181 0 100 4.362h9.063a2.181 2.181 0 100-4.362z" fill="#646f87"/><g id="Group_30" data-name="Group 30" transform="translate(130.641 1144.422)"><g id="Group_29" data-name="Group 29"><g id="Group_28" data-name="Group 28"><path id="Path_33" data-name="Path 33" d="M152.91 1161.962v-4.083a1.843 1.843 0 00-3.217-1.228l-8.744 9.721a1.825 1.825 0 00-.056 2.394l8.744 10.691a1.829 1.829 0 001.242.67 1.841 1.841 0 002.031-1.835v-3.922c6.748.454 10.984 3.524 12.932 9.372A1.85 1.85 0 00167.6 1185a1.909 1.909 0 00.286-.021 1.838 1.838 0 001.549-1.822c.001-11.634-6.754-20.218-16.525-21.195zm-1.842 3.594c5.974 0 10.761 3.42 13.113 9.135-3.238-2.708-7.628-4.076-13.113-4.076a1.853 1.853 0 00-1.849 1.849v.663l-4.473-5.471 4.473-4.969v1.026a1.847 1.847 0 001.849 1.843z" transform="translate(-140.473 -1156.037)" fill="#e60f26"/></g></g></g></g></svg>