<svg xmlns="http://www.w3.org/2000/svg" width="52.172" height="56"><g id="Group_16" data-name="Group 16" transform="translate(-67.262 -862.817)"><path id="Path_21" data-name="Path 21" d="M119.148 883.752a2.189 2.189 0 00-2.189-2.189H94.41a2.189 2.189 0 000 4.378h22.549a2.189 2.189 0 002.189-2.189zm-8.744 8.757a2.189 2.189 0 00-2.189-2.189H94.41a2.189 2.189 0 000 4.378h13.8a2.189 2.189 0 002.19-2.189zm-15.994 6.567a2.189 2.189 0 100 4.378h9.1a2.189 2.189 0 100-4.378z" transform="translate(-7.475 -5.614)" fill="#646f87"/><path id="Path_22" data-name="Path 22" d="M122.7 870.677a9.37 9.37 0 00-.315-1.611 8.788 8.788 0 00-8.4-6.249H87.074a8.76 8.76 0 00-8.757 8.757v38.486c0 .3.014.6.042.89a7.692 7.692 0 00.119.82 8.8 8.8 0 008.6 7.047h26.914a8.764 8.764 0 008.757-8.757v-38.529a9.622 9.622 0 00-.049-.854zm-4.336 39.384a4.38 4.38 0 01-4.378 4.378H87.074a4.389 4.389 0 01-4.357-3.93 4.687 4.687 0 01-.021-.448v-38.487a4.38 4.38 0 014.378-4.378h26.914a4.389 4.389 0 014.357 3.93 3.944 3.944 0 01.021.406z" transform="translate(-3.311)" fill="#646f87"/><path id="Path_23" data-name="Path 23" d="M72.992 914.341a4.387 4.387 0 01-3.454-3.832 4.687 4.687 0 01-.021-.448v-38.487a4.237 4.237 0 013.205-4.36c1.5-2.669 4.149-4.4 5.359-4.4H73.9a8.76 8.76 0 00-8.757 8.757v38.489c0 .3.014.6.042.89a7.69 7.69 0 00.119.82 8.8 8.8 0 008.6 7.047h6.732a8.77 8.77 0 01-7.644-4.476z" transform="translate(2.123)" fill="#e60f26"/></g></svg>