<svg xmlns="http://www.w3.org/2000/svg" width="50.671" height="56.232"><g id="Group_41" data-name="Group 41" transform="translate(-1374.411 -1284)"><path id="Path_27" data-name="Path 27" d="M356.233 913.246a2.177 2.177 0 01-2.177 2.177h-5.008a8.718 8.718 0 01-8.708-8.708V868.4a8.718 8.718 0 018.708-8.708h26.766a8.718 8.718 0 018.708 8.708v12.953a2.177 2.177 0 01-4.354 0V868.4a4.359 4.359 0 00-4.354-4.354h-26.766a4.359 4.359 0 00-4.354 4.354v38.315a4.359 4.359 0 004.354 4.354h5.008a2.177 2.177 0 012.177 2.177zm19.581-38.315a2.177 2.177 0 00-2.177-2.177h-22.424a2.177 2.177 0 100 4.354h22.423a2.177 2.177 0 002.177-2.178zm-8.7 8.708a2.177 2.177 0 00-2.177-2.177h-13.724a2.177 2.177 0 100 4.354h13.727a2.177 2.177 0 002.178-2.178zm-15.9 6.531a2.177 2.177 0 100 4.354h9.047a2.177 2.177 0 100-4.354z" transform="translate(1034.071 424.309)" fill="#646f87"/><g id="Group_40" data-name="Group 40" transform="translate(1394.525 1309.574)"><path id="Subtraction_1" data-name="Subtraction 1" d="M25.654 30.158H4.4a4.409 4.409 0 01-4.307-5.309 15.243 15.243 0 018.562-10.756 8.488 8.488 0 1112.742 0 15.017 15.017 0 013.309 2.076 15.388 15.388 0 015.2 8.478l.025.1h0l.017.069a4.438 4.438 0 01-.905 3.713 4.353 4.353 0 01-3.389 1.629zM15.023 17.047a10.943 10.943 0 00-10.666 8.687.07.07 0 00.028.07h21.269a.1.1 0 00.034-.063v-.007a10.943 10.943 0 00-10.665-8.687zm0-12.693a4.138 4.138 0 104.138 4.138 4.139 4.139 0 00-4.138-4.138z" fill="#e60f26" stroke="rgba(0,0,0,0)" stroke-miterlimit="10" stroke-width="1"/></g></g></svg>