<svg xmlns="http://www.w3.org/2000/svg" width="55.958" height="56"><g id="Group_117" data-name="Group 117" transform="translate(-996.91 -1121.343)"><g id="Group_17" data-name="Group 17" transform="translate(1002.692 1121.343)" fill="#646f87"><path id="Path_24" data-name="Path 24" d="M1035.051 1148.843h-13.79a2.188 2.188 0 100 4.375h13.79a2.188 2.188 0 100-4.375zm8.743-8.75h-22.533a2.188 2.188 0 100 4.375h22.533a2.188 2.188 0 000-4.375z" transform="translate(-1009.34 -1126.968)"/><path id="Path_25" data-name="Path 25" d="M1049.522 1129.2a9.354 9.354 0 00-.315-1.61 8.781 8.781 0 00-8.393-6.244h-26.894a8.753 8.753 0 00-8.75 8.75v25.893a4.388 4.388 0 012.52-1.141c.147-.014.294-.021.448-.021h1.407v-24.731a4.377 4.377 0 014.375-4.375h26.894a4.385 4.385 0 014.354 3.927 3.931 3.931 0 01.021.406v24.773h1.407a4.321 4.321 0 012.968 1.169v-25.942c0-.29-.014-.577-.042-.854z" transform="translate(-1005.17 -1121.343)"/></g><g id="Group_18" data-name="Group 18" transform="translate(996.91 1150.449)"><path id="Path_26" data-name="Path 26" d="M1047.086 1163.441a8.7 8.7 0 00-2.968-.518h-10.157v2.989a4.325 4.325 0 01-.224 1.386 4.38 4.38 0 01-4.151 2.989h-9.394a4.345 4.345 0 01-3.262-1.47 4.289 4.289 0 01-.882-1.519 4.238 4.238 0 01-.21-.938 4.687 4.687 0 01-.021-.448v-2.989h-10.157c-.3 0-.6.014-.889.042a7.635 7.635 0 00-.819.119 9.3 9.3 0 00-1.26.357 8.777 8.777 0 00-5.782 8.232v9.394a8.758 8.758 0 008.75 8.75h38.5c.287 0 .574-.014.854-.042a9.354 9.354 0 001.61-.315 8.781 8.781 0 006.244-8.393v-9.394a8.757 8.757 0 00-5.782-8.232zm1.407 17.626a4.385 4.385 0 01-2.331 3.871 4.317 4.317 0 01-1.6.483 3.9 3.9 0 01-.406.021h-38.5a4.377 4.377 0 01-4.375-4.375v-9.394a4.382 4.382 0 013.927-4.354c.147-.014.294-.021.448-.021h5.887c.014.112.035.217.056.322a8.788 8.788 0 008.589 7.042h9.394a8.776 8.776 0 008.645-7.364h5.887a4.39 4.39 0 014.375 4.375z" transform="translate(-996.91 -1162.923)" fill="#e60f26"/></g></g></svg>