<svg xmlns="http://www.w3.org/2000/svg" width="51.831" height="56"><g id="Group_23" data-name="Group 23" transform="translate(-1192.058 -869.688)"><path id="Path_28" data-name="Path 28" d="M1208.027 923.5a2.187 2.187 0 01-2.187 2.188h-5.032a8.76 8.76 0 01-8.75-8.75v-38.5a8.76 8.76 0 018.75-8.75h26.892a8.76 8.76 0 018.75 8.75v13.015a2.188 2.188 0 01-4.375 0v-13.015a4.38 4.38 0 00-4.375-4.375h-26.895a4.38 4.38 0 00-4.375 4.375v38.5a4.38 4.38 0 004.375 4.375h5.032a2.187 2.187 0 012.19 2.187zM1227.7 885a2.187 2.187 0 00-2.187-2.187h-22.532a2.188 2.188 0 000 4.375h22.532A2.187 2.187 0 001227.7 885zm-8.737 8.75a2.187 2.187 0 00-2.187-2.187h-13.794a2.188 2.188 0 000 4.375h13.794a2.187 2.187 0 002.189-2.188zm-15.982 6.563a2.188 2.188 0 000 4.375h9.091a2.188 2.188 0 000-4.375z" fill="#646f87"/><g id="Group_22" data-name="Group 22" transform="translate(1214.837 896.599)"><g id="Group_21" data-name="Group 21"><g id="Group_20" data-name="Group 20"><path id="Path_29" data-name="Path 29" d="M1241.176 914.075v-4.1a1.849 1.849 0 013.227-1.232l8.771 9.751a1.83 1.83 0 01.056 2.4l-8.771 10.724a1.834 1.834 0 01-1.246.672 1.846 1.846 0 01-2.037-1.841v-3.934c-6.769.455-11.018 3.535-12.971 9.4a1.856 1.856 0 01-1.764 1.26 1.906 1.906 0 01-.287-.021 1.844 1.844 0 01-1.554-1.827c0-11.662 6.776-20.272 16.576-21.252zm1.848 3.6c-5.992 0-10.794 3.43-13.153 9.163 3.248-2.716 7.651-4.088 13.153-4.088a1.858 1.858 0 011.855 1.855v.665l4.487-5.488-4.487-4.984v1.029a1.852 1.852 0 01-1.855 1.853z" transform="translate(-1224.6 -908.132)" fill="#e60f26"/></g></g></g></g></svg>