<svg xmlns="http://www.w3.org/2000/svg" width="24" height="24"><g id="fax" transform="translate(-992 -328)"><rect id="Rectangle_365" data-name="Rectangle 365" width="24" height="24" rx="6" transform="translate(992 328)" fill="#f1f1f4"/><g id="print_black_24dp" transform="translate(996 332)"><path id="Path_109" data-name="Path 109" d="M0 0h16v16H0z" fill="none"/><path id="Path_110" data-name="Path 110" d="M13.324 6.329H4a2 2 0 00-2 2v3.991h2.664v2.663h7.993V12.32h2.664V8.326a2 2 0 00-1.997-1.997zm-2 7.323H6v-3.329h5.329zm2-4.66a.666.666 0 11.666-.666.668.668 0 01-.666.666zM12.658 3H4.664v2.663h7.993z" transform="translate(-.661 -.992)" fill="#646f87"/></g></g></svg>